<svg data-v-423bf9ae="" xmlns="http://www.w3.org/2000/svg" viewBox="0 0 225.3027711992333 60" class="font"><!----><!----><defs data-v-423bf9ae=""><linearGradient data-v-423bf9ae="" gradientTransform="rotate(25)" id="8f9b6c0e-8df6-4258-a1f9-f6263c4eb3b7" x1="0%" y1="0%" x2="100%" y2="0%"><stop data-v-423bf9ae="" offset="0%" style="stop-color: rgb(0, 21, 214); stop-opacity: 1;"></stop><stop data-v-423bf9ae="" offset="100%" style="stop-color: rgb(9, 137, 251); stop-opacity: 1;"></stop></linearGradient></defs><g data-v-423bf9ae="" id="ae78ecc3-c652-48fa-bdd6-8814986e2a39" fill="url(#8f9b6c0e-8df6-4258-a1f9-f6263c4eb3b7)" transform="matrix(4.704589143259274,0,0,4.704589143259274,-2.634570640978964,-2.768180639133483)"><path d="M6.44 12.43L6.44 13.03L6.44 13.03Q6.44 13.30 6.41 13.31L6.41 13.31L6.41 13.31Q6.38 13.33 6.20 13.15L6.20 13.15L0.80 7.71L0.80 7.71Q0.71 7.63 0.67 7.57L0.67 7.57L0.67 7.57Q0.62 7.52 0.59 7.47L0.59 7.47L0.59 7.47Q0.57 7.42 0.57 7.35L0.57 7.35L0.57 7.35Q0.56 7.28 0.56 7.17L0.56 7.17L0.56 6.80L0.56 6.80Q0.56 6.69 0.57 6.62L0.57 6.62L0.57 6.62Q0.57 6.55 0.59 6.50L0.59 6.50L0.59 6.50Q0.62 6.45 0.67 6.40L0.67 6.40L0.67 6.40Q0.71 6.34 0.80 6.26L0.80 6.26L6.15 0.83L6.15 0.83Q6.37 0.60 6.41 0.62L6.41 0.62L6.41 0.62Q6.44 0.63 6.44 0.95L6.44 0.95L6.44 1.48L6.44 1.48Q6.44 1.62 6.43 1.71L6.43 1.71L6.43 1.71Q6.43 1.79 6.41 1.85L6.41 1.85L6.41 1.85Q6.38 1.90 6.33 1.96L6.33 1.96L6.33 1.96Q6.29 2.02 6.19 2.11L6.19 2.11L1.60 6.78L1.60 6.78Q1.44 6.93 1.44 6.98L1.44 6.98L1.44 6.98Q1.43 7.03 1.57 7.17L1.57 7.17L1.57 7.17Q2.11 7.71 2.70 8.31L2.70 8.31L2.70 8.31Q3.29 8.90 3.89 9.51L3.89 9.51L3.89 9.51Q4.49 10.12 5.09 10.72L5.09 10.72L5.09 10.72Q5.68 11.33 6.23 11.87L6.23 11.87L6.23 11.87Q6.38 12.04 6.41 12.11L6.41 12.11L6.41 12.11Q6.44 12.18 6.44 12.43L6.44 12.43ZM9.31 8.13L11.75 8.13L10.54 3.32L9.31 8.13ZM11.26 2.42L13.66 11.61L13.66 11.61Q13.73 11.80 13.54 11.80L13.54 11.80L12.88 11.80L12.88 11.80Q12.80 11.80 12.73 11.77L12.73 11.77L12.73 11.77Q12.67 11.75 12.61 11.61L12.61 11.61L11.94 9.03L9.09 9.03L8.37 11.61L8.37 11.61Q8.32 11.75 8.25 11.77L8.25 11.77L8.25 11.77Q8.19 11.80 8.11 11.80L8.11 11.80L7.45 11.80L7.45 11.80Q7.25 11.80 7.32 11.61L7.32 11.61L9.90 2.42L9.90 2.42Q9.97 2.25 10.15 2.25L10.15 2.25L11.00 2.25L11.00 2.25Q11.19 2.25 11.26 2.42L11.26 2.42ZM19.57 5.00L19.57 5.00L19.57 5.00Q19.57 4.21 19.05 3.68L19.05 3.68L19.05 3.68Q18.52 3.14 17.53 3.14L17.53 3.14L15.85 3.14L15.85 6.90L16.56 6.90L16.56 6.90Q17.37 6.90 17.84 6.83L17.84 6.83L17.84 6.83Q18.31 6.76 18.70 6.55L18.70 6.55L18.70 6.55Q19.08 6.34 19.31 6.02L19.31 6.02L19.31 6.02Q19.53 5.70 19.57 5.00ZM15.85 7.78L15.85 11.61L15.85 11.61Q15.85 11.80 15.65 11.80L15.65 11.80L15.04 11.80L15.04 11.80Q14.84 11.80 14.84 11.61L14.84 11.61L14.84 2.67L14.84 2.67Q14.84 2.37 14.90 2.31L14.90 2.31L14.90 2.31Q14.97 2.25 15.26 2.25L15.26 2.25L17.32 2.25L17.32 2.25Q18.86 2.25 19.73 3.00L19.73 3.00L19.73 3.00Q20.62 3.77 20.62 5.00L20.62 5.00L20.62 5.00Q20.62 5.73 20.36 6.20L20.36 6.20L20.36 6.20Q20.10 6.68 19.63 7.05L19.63 7.05L19.63 7.05Q19.17 7.42 18.54 7.60L18.54 7.60L18.54 7.60Q17.91 7.78 17.21 7.78L17.21 7.78L15.85 7.78ZM22.39 11.61L22.39 11.61L22.39 11.13L22.39 11.13Q22.39 10.93 22.58 10.93L22.58 10.93L23.97 10.93L23.97 3.12L22.72 3.12L22.72 3.12Q22.53 3.12 22.53 2.93L22.53 2.93L22.53 2.45L22.53 2.45Q22.53 2.25 22.72 2.25L22.72 2.25L26.28 2.25L26.28 2.25Q26.47 2.25 26.47 2.45L26.47 2.45L26.47 2.93L26.47 2.93Q26.47 3.12 26.28 3.12L26.28 3.12L25.03 3.12L25.03 10.93L26.42 10.93L26.42 10.93Q26.61 10.93 26.61 11.13L26.61 11.13L26.61 11.61L26.61 11.61Q26.61 11.80 26.42 11.80L26.42 11.80L22.58 11.80L22.58 11.80Q22.39 11.80 22.39 11.61ZM40.25 1.55L40.80 1.55L40.80 1.55Q40.96 1.55 40.98 1.58L40.98 1.58L40.98 1.58Q41.01 1.61 40.95 1.76L40.95 1.76L37.04 12.26L37.04 12.26Q36.99 12.39 36.96 12.41L36.96 12.41L36.96 12.41Q36.93 12.43 36.78 12.43L36.78 12.43L36.19 12.43L36.19 12.43Q36.02 12.43 36.00 12.40L36.00 12.40L36.00 12.40Q35.98 12.38 36.04 12.24L36.04 12.24L39.94 1.75L39.94 1.75Q40.00 1.61 40.03 1.58L40.03 1.58L40.03 1.58Q40.07 1.55 40.25 1.55L40.25 1.55ZM42.55 13.06L42.55 12.46L42.55 12.46Q42.55 12.33 42.55 12.26L42.55 12.26L42.55 12.26Q42.55 12.19 42.57 12.14L42.57 12.14L42.57 12.14Q42.59 12.08 42.64 12.03L42.64 12.03L42.64 12.03Q42.69 11.97 42.77 11.89L42.77 11.89L42.77 11.89Q43.32 11.34 43.91 10.74L43.91 10.74L43.91 10.74Q44.51 10.14 45.11 9.53L45.11 9.53L45.11 9.53Q45.71 8.92 46.30 8.32L46.30 8.32L46.30 8.32Q46.90 7.71 47.45 7.17L47.45 7.17L47.45 7.17Q47.57 7.03 47.57 6.98L47.57 6.98L47.57 6.98Q47.57 6.93 47.42 6.78L47.42 6.78L42.80 2.10L42.80 2.10Q42.70 2.00 42.65 1.95L42.65 1.95L42.65 1.95Q42.60 1.89 42.58 1.83L42.58 1.83L42.58 1.83Q42.56 1.78 42.55 1.69L42.55 1.69L42.55 1.69Q42.55 1.61 42.55 1.47L42.55 1.47L42.55 0.92L42.55 0.92Q42.55 0.60 42.58 0.59L42.58 0.59L42.58 0.59Q42.62 0.57 42.83 0.80L42.83 0.80L48.22 6.26L48.22 6.26Q48.30 6.34 48.35 6.40L48.35 6.40L48.35 6.40Q48.40 6.45 48.42 6.50L48.42 6.50L48.42 6.50Q48.44 6.55 48.45 6.62L48.45 6.62L48.45 6.62Q48.45 6.69 48.45 6.80L48.45 6.80L48.45 7.17L48.45 7.17Q48.45 7.28 48.45 7.35L48.45 7.35L48.45 7.35Q48.44 7.42 48.42 7.47L48.42 7.47L48.42 7.47Q48.40 7.52 48.35 7.57L48.35 7.57L48.35 7.57Q48.30 7.63 48.22 7.71L48.22 7.71L42.78 13.17L42.78 13.17Q42.60 13.36 42.57 13.34L42.57 13.34L42.57 13.34Q42.55 13.33 42.55 13.06L42.55 13.06Z"></path></g><!----><!----></svg>